<mxfile host="app.diagrams.net" modified="2022-09-19T09:42:25.860Z" agent="5.0 (Macintosh; Intel Mac OS X 10_15_7) AppleWebKit/537.36 (KHTML, like Gecko) Chrome/105.0.0.0 Safari/537.36" etag="41qrr7-H4y9cfOpEjrou" version="20.3.2" type="github">
  <diagram id="m1oHhZ4rQsm6fkcD-A-E" name="페이지-1">
    <mxGraphModel dx="1283" dy="1337" grid="0" gridSize="10" guides="1" tooltips="1" connect="1" arrows="1" fold="1" page="1" pageScale="1" pageWidth="827" pageHeight="1169" math="0" shadow="0">
      <root>
        <mxCell id="0" />
        <mxCell id="1" parent="0" />
        <mxCell id="dLV3R7KHpt0eolfRAfcT-1" value="" style="edgeStyle=none;orthogonalLoop=1;jettySize=auto;html=1;rounded=0;strokeWidth=30;endArrow=async;endFill=1;fillColor=#e1d5e7;strokeColor=#9673a6;startArrow=none;" edge="1" parent="1" source="dLV3R7KHpt0eolfRAfcT-2">
          <mxGeometry width="80" relative="1" as="geometry">
            <mxPoint x="100" y="530" as="sourcePoint" />
            <mxPoint x="713" y="530" as="targetPoint" />
            <Array as="points" />
          </mxGeometry>
        </mxCell>
        <mxCell id="dLV3R7KHpt0eolfRAfcT-2" value="&lt;font style=&quot;font-size: 18px;&quot;&gt;main Branch&lt;/font&gt;" style="text;html=1;resizable=0;autosize=1;align=center;verticalAlign=middle;points=[];fillColor=none;strokeColor=none;rounded=0;labelBorderColor=none;labelBackgroundColor=none;" vertex="1" parent="1">
          <mxGeometry x="324" y="513" width="119" height="34" as="geometry" />
        </mxCell>
        <mxCell id="dLV3R7KHpt0eolfRAfcT-6" value="" style="edgeStyle=none;orthogonalLoop=1;jettySize=auto;html=1;rounded=0;strokeWidth=30;endArrow=none;endFill=1;fillColor=#e1d5e7;strokeColor=#9673a6;" edge="1" parent="1" target="dLV3R7KHpt0eolfRAfcT-2">
          <mxGeometry width="80" relative="1" as="geometry">
            <mxPoint x="100" y="530" as="sourcePoint" />
            <mxPoint x="770" y="530" as="targetPoint" />
            <Array as="points" />
          </mxGeometry>
        </mxCell>
        <mxCell id="dLV3R7KHpt0eolfRAfcT-10" value="" style="edgeStyle=none;orthogonalLoop=1;jettySize=auto;html=1;rounded=0;strokeWidth=20;endArrow=none;endFill=0;fillColor=#e1d5e7;strokeColor=#9999FF;" edge="1" parent="1">
          <mxGeometry width="80" relative="1" as="geometry">
            <mxPoint x="173" y="508" as="sourcePoint" />
            <mxPoint x="390" y="347" as="targetPoint" />
            <Array as="points" />
          </mxGeometry>
        </mxCell>
        <mxCell id="dLV3R7KHpt0eolfRAfcT-11" value="" style="edgeStyle=none;orthogonalLoop=1;jettySize=auto;html=1;rounded=0;strokeWidth=20;endArrow=async;endFill=1;fillColor=#e1d5e7;strokeColor=#9999FF;" edge="1" parent="1">
          <mxGeometry width="80" relative="1" as="geometry">
            <mxPoint x="381" y="350" as="sourcePoint" />
            <mxPoint x="582" y="347" as="targetPoint" />
            <Array as="points" />
          </mxGeometry>
        </mxCell>
        <mxCell id="dLV3R7KHpt0eolfRAfcT-12" value="&lt;font style=&quot;font-size: 18px;&quot;&gt;develop branch&lt;/font&gt;" style="text;html=1;resizable=0;autosize=1;align=center;verticalAlign=middle;points=[];fillColor=none;strokeColor=none;rounded=0;labelBorderColor=none;labelBackgroundColor=none;" vertex="1" parent="1">
          <mxGeometry x="323" y="381" width="141" height="34" as="geometry" />
        </mxCell>
      </root>
    </mxGraphModel>
  </diagram>
</mxfile>
